<svg width="123" height="43" viewBox="0 0 123 43" fill="none" xmlns="http://www.w3.org/2000/svg">
<path d="M19.1249 0H32.7173L6.40277 23.8345L0 16.8952L19.1249 0Z" fill="white"/>
<path d="M7.3208 25.2653L9.97968 23.0118L20.329 34.6012H15.4882L7.3208 25.2653Z" fill="white"/>
<path d="M16.895 17.6583L33.7902 34.5535V17.6583H16.895Z" fill="white"/>
<path d="M58.0015 40.1188C57.352 40.1188 56.7541 40.0158 56.2076 39.8099C55.669 39.5961 55.1978 39.2991 54.7939 38.9189C54.39 38.5308 54.0771 38.0754 53.8554 37.5527C53.6336 37.03 53.5227 36.4598 53.5227 35.842C53.5227 35.2242 53.6336 34.654 53.8554 34.1313C54.0771 33.6086 54.39 33.1571 54.7939 32.777C55.2057 32.3889 55.6849 32.0919 56.2314 31.886C56.7778 31.6721 57.3758 31.5652 58.0252 31.5652C58.7301 31.5652 59.3637 31.68 59.926 31.9097C60.4963 32.1394 60.9754 32.476 61.3635 32.9195L60.3894 33.8699C60.0646 33.5452 59.7122 33.3076 59.332 33.1571C58.9598 32.9987 58.548 32.9195 58.0965 32.9195C57.6609 32.9195 57.257 32.9908 56.8848 33.1334C56.5125 33.2759 56.1918 33.4779 55.9225 33.7392C55.6532 34.0006 55.4433 34.3095 55.2928 34.6659C55.1503 35.0223 55.079 35.4143 55.079 35.842C55.079 36.2618 55.1503 36.6498 55.2928 37.0062C55.4433 37.3626 55.6532 37.6755 55.9225 37.9448C56.1918 38.2061 56.5086 38.4081 56.8729 38.5506C57.2372 38.6932 57.6411 38.7645 58.0846 38.7645C58.4965 38.7645 58.8925 38.7011 59.2726 38.5744C59.6607 38.4398 60.029 38.218 60.3775 37.9091L61.2566 39.0615C60.821 39.41 60.3141 39.6753 59.736 39.8574C59.1657 40.0317 58.5876 40.1188 58.0015 40.1188ZM59.7954 38.8595V35.747H61.2566V39.0615L59.7954 38.8595ZM62.1174 40L65.8596 31.684H67.3803L71.1344 40H69.5187L66.2992 32.5037H66.917L63.7094 40H62.1174ZM63.84 38.0754L64.2558 36.8637H68.7465L69.1623 38.0754H63.84ZM72.192 40V31.684H73.4631L77.0984 37.7547H76.4331L80.009 31.684H81.2802L81.292 40H79.8308L79.8189 33.9768H80.1278L77.0865 39.0496H76.3975L73.3087 33.9768H73.6651V40H72.192ZM83.5383 40V31.684H85.0827V40H83.5383ZM87.332 40V31.684H88.6032L93.8185 38.0873H93.1888V31.684H94.7214V40H93.4502L88.2349 33.5967H88.8645V40H87.332ZM100.834 40.1188C100.185 40.1188 99.587 40.0158 99.0406 39.8099C98.502 39.5961 98.0308 39.2991 97.6268 38.9189C97.2229 38.5308 96.9101 38.0754 96.6883 37.5527C96.4666 37.03 96.3557 36.4598 96.3557 35.842C96.3557 35.2242 96.4666 34.654 96.6883 34.1313C96.9101 33.6086 97.2229 33.1571 97.6268 32.777C98.0387 32.3889 98.5178 32.0919 99.0643 31.886C99.6108 31.6721 100.209 31.5652 100.858 31.5652C101.563 31.5652 102.197 31.68 102.759 31.9097C103.329 32.1394 103.808 32.476 104.196 32.9195L103.222 33.8699C102.898 33.5452 102.545 33.3076 102.165 33.1571C101.793 32.9987 101.381 32.9195 100.929 32.9195C100.494 32.9195 100.09 32.9908 99.7177 33.1334C99.3455 33.2759 99.0247 33.4779 98.7554 33.7392C98.4862 34.0006 98.2763 34.3095 98.1258 34.6659C97.9832 35.0223 97.912 35.4143 97.912 35.842C97.912 36.2618 97.9832 36.6498 98.1258 37.0062C98.2763 37.3626 98.4862 37.6755 98.7554 37.9448C99.0247 38.2061 99.3415 38.4081 99.7058 38.5506C100.07 38.6932 100.474 38.7645 100.918 38.7645C101.329 38.7645 101.725 38.7011 102.106 38.5744C102.494 38.4398 102.862 38.218 103.21 37.9091L104.09 39.0615C103.654 39.41 103.147 39.6753 102.569 39.8574C101.999 40.0317 101.421 40.1188 100.834 40.1188ZM102.628 38.8595V35.747H104.09V39.0615L102.628 38.8595Z" fill="white"/>
<path d="M61.1187 15.7147L58.7698 13.3659L61.1187 11.017V0.918025L61.7983 0.238403H53.7263V10.3254H49.6843V0.238403H41.6123L42.2919 0.918025V34.5534L49.6843 26.4814V16.3944H53.7263V26.4814H61.7983L61.1187 25.8018V15.7147Z" fill="white"/>
<path d="M75.9275 0.238425L76.5952 0.918047V20.4244H75.9275H71.8974H71.2178V0.906123L71.8855 0.238425H63.8135L64.4931 0.918047V26.4814H83.3318V0.906123L84.0114 0.226501H75.9275V0.238425Z" fill="white"/>
<path d="M98.1284 16.3825L98.8081 17.0621V20.4244H93.4188V0.906123L94.0984 0.226501H86.0264L86.706 0.906123V26.4695H105.545V17.0502L106.224 16.3705H98.1284V16.3825Z" fill="white"/>
<path d="M123 0.238403L122.356 0.882257V6.2954H116.299V34.5534L108.227 26.4814V6.2954H102.17V0.882257L101.526 0.238403H123Z" fill="white"/>
</svg>
